# xmcd CD database file
#
# Track frame offsets:
#	150
#	19304
#	35014
#	54853
#	111958
#	207148
#
# Disc length: 3590 seconds
#
# Revision: 0
# Processed by: cddbd v1.5.1PL2 Copyright (c) Steve Scherf et al.
# Submitted via: Feurio! 1.67 - http://www.feurio.com
#
DISCID=4b0e0406
DTITLE=k.d. lang - The Making of Shadowland
DYEAR=1900
DGENRE=
TTITLE0=Salmonberries - Barefoot (Rythmic Version)
TTITLE1=Salmonberries - Barefoot (Accoustic Version)
TTITLE2=Salmonberries - Pullin´ back the Reins
TTITLE3=The Making of Shadowland - Part1
TTITLE4=The Making of Shadowland - Part2
TTITLE5=The Making of Shadowland - Part3
EXTD=
EXTT0=
EXTT1=
EXTT2=
EXTT3=
EXTT4=
EXTT5=
PLAYORDER=
